# xmcd
#
# Track frame offsets:
#	150
#	22161
#	38069
#	55698
#	76445
#	96055
#	117709
#	134429
#	155871
#	179917
#
# Disc length: 2638 seconds
#
# Revision: 1
# Processed by: cddbd v1.5.2PL0 Copyright (c) Steve Scherf et al.
# Submitted via: audiograbber 1.83.01
#
DISCID=900a4c0a
DTITLE=Golden Earring - Complete Studio Recordings [CD 20) - Bloody Buccaneers 
DTITLE=[remastered 2017]
DYEAR=1991
DGENRE=Rock
TTITLE0=Making Love To Yourself
TTITLE1=Temporary Madness
TTITLE2=Going To The Run
TTITLE3=Joe
TTITLE4=Planet Blue
TTITLE5=Bloody Buccaneers
TTITLE6=One Shot Away From Paradise
TTITLE7=When Love Turns To Pain
TTITLE8=In A Bad Mood
TTITLE9=Pourin' My Heart Out Again
EXTD=
EXTT0=
EXTT1=
EXTT2=
EXTT3=
EXTT4=
EXTT5=
EXTT6=
EXTT7=
EXTT8=
EXTT9=
PLAYORDER=
